<svg viewBox="0 0 560 380" fill="none" xmlns="http://www.w3.org/2000/svg" width="560" height="380">
  <!-- Browser window frame -->
  <rect width="560" height="380" rx="12" fill="#1A1A1A"/>
  <!-- Browser chrome -->
  <rect x="0" y="0" width="560" height="36" rx="12" fill="#2A2A2A"/>
  <rect x="0" y="24" width="560" height="12" fill="#2A2A2A"/>
  <!-- Traffic lights -->
  <circle cx="20" cy="18" r="5" fill="#FF5F57"/>
  <circle cx="36" cy="18" r="5" fill="#FEBC2E"/>
  <circle cx="52" cy="18" r="5" fill="#28C840"/>
  <!-- URL bar -->
  <rect x="76" y="10" width="280" height="16" rx="8" fill="#3A3A3A"/>
  <text x="216" y="22" font-family="'Rethink Sans',sans-serif" font-size="9" fill="#888" text-anchor="middle">studyos.app/dashboard</text>

  <!-- App content -->
  <!-- Left sidebar -->
  <rect x="0" y="36" width="160" height="344" rx="0" fill="#111111"/>
  <!-- Logo -->
  <text x="20" y="64" font-family="Georgia,serif" font-size="16" font-weight="700" fill="#C5A24A">StudyOS</text>
  <!-- Nav items -->
  <rect x="12" y="80" width="136" height="28" rx="6" fill="#C5A24A" opacity="0.2"/>
  <text x="44" y="99" font-family="'Rethink Sans',sans-serif" font-size="10" fill="#C5A24A" font-weight="600">Dashboard</text>
  <text x="44" y="124" font-family="'Rethink Sans',sans-serif" font-size="10" fill="#888">Mis materias</text>
  <text x="44" y="149" font-family="'Rethink Sans',sans-serif" font-size="10" fill="#888">Flashcards</text>
  <text x="44" y="174" font-family="'Rethink Sans',sans-serif" font-size="10" fill="#888">Plan de estudio</text>
  <text x="44" y="199" font-family="'Rethink Sans',sans-serif" font-size="10" fill="#888">Créditos</text>
  <!-- Divider -->
  <line x1="12" y1="215" x2="148" y2="215" stroke="#333" stroke-width="1"/>
  <!-- User avatar -->
  <circle cx="30" cy="350" r="14" fill="#9B8FD4" opacity="0.5"/>
  <text x="52" y="354" font-family="'Rethink Sans',sans-serif" font-size="10" fill="#888">Juan M. Parra</text>

  <!-- Main content area -->
  <rect x="160" y="36" width="400" height="344" fill="#1C1C1C"/>

  <!-- Top bar -->
  <text x="180" y="68" font-family="'Rethink Sans',sans-serif" font-size="14" fill="white" font-weight="700">Dashboard</text>
  <rect x="460" y="52" width="80" height="26" rx="6" fill="#C5A24A"/>
  <text x="500" y="69" font-family="'Rethink Sans',sans-serif" font-size="10" fill="#111" font-weight="600" text-anchor="middle">+ Nueva materia</text>

  <!-- Stats row -->
  <rect x="176" y="88" width="112" height="60" rx="8" fill="#252525"/>
  <text x="188" y="112" font-family="Georgia,serif" font-size="22" fill="#C5A24A" font-weight="400">6</text>
  <text x="188" y="130" font-family="'Rethink Sans',sans-serif" font-size="9" fill="#666">Materias activas</text>

  <rect x="300" y="88" width="112" height="60" rx="8" fill="#252525"/>
  <text x="312" y="112" font-family="Georgia,serif" font-size="22" fill="#9B8FD4" font-weight="400">142</text>
  <text x="312" y="130" font-family="'Rethink Sans',sans-serif" font-size="9" fill="#666">Flashcards creadas</text>

  <rect x="424" y="88" width="112" height="60" rx="8" fill="#252525"/>
  <text x="436" y="112" font-family="Georgia,serif" font-size="22" fill="#C5A24A" font-weight="400">87%</text>
  <text x="436" y="130" font-family="'Rethink Sans',sans-serif" font-size="9" fill="#666">Tasa de retención</text>

  <!-- Active study subjects -->
  <text x="180" y="172" font-family="'Rethink Sans',sans-serif" font-size="11" fill="#aaa" font-weight="600">MATERIAS EN PREPARACIÓN</text>

  <!-- Subject card 1 -->
  <rect x="176" y="182" width="170" height="72" rx="8" fill="#252525"/>
  <rect x="176" y="182" width="4" height="72" rx="2" fill="#C5A24A"/>
  <text x="192" y="204" font-family="'Rethink Sans',sans-serif" font-size="11" fill="white" font-weight="600">Análisis Matemático II</text>
  <text x="192" y="220" font-family="'Rethink Sans',sans-serif" font-size="9" fill="#666">Examen en 12 días</text>
  <rect x="192" y="230" width="120" height="5" rx="2" fill="#333"/>
  <rect x="192" y="230" width="80" height="5" rx="2" fill="#C5A24A"/>
  <text x="192" y="248" font-family="'Rethink Sans',sans-serif" font-size="8" fill="#C5A24A">67% completado</text>

  <!-- Subject card 2 -->
  <rect x="358" y="182" width="178" height="72" rx="8" fill="#252525"/>
  <rect x="358" y="182" width="4" height="72" rx="2" fill="#9B8FD4"/>
  <text x="374" y="204" font-family="'Rethink Sans',sans-serif" font-size="11" fill="white" font-weight="600">Derecho Constitucional</text>
  <text x="374" y="220" font-family="'Rethink Sans',sans-serif" font-size="9" fill="#666">Examen en 18 días</text>
  <rect x="374" y="230" width="128" height="5" rx="2" fill="#333"/>
  <rect x="374" y="230" width="50" height="5" rx="2" fill="#9B8FD4"/>
  <text x="374" y="248" font-family="'Rethink Sans',sans-serif" font-size="8" fill="#9B8FD4">39% completado</text>

  <!-- Recent activity -->
  <text x="180" y="278" font-family="'Rethink Sans',sans-serif" font-size="11" fill="#aaa" font-weight="600">ACTIVIDAD RECIENTE</text>

  <rect x="176" y="288" width="360" height="32" rx="6" fill="#252525"/>
  <circle cx="198" cy="304" r="8" fill="#9B8FD4" opacity="0.3"/>
  <text x="218" y="308" font-family="'Rethink Sans',sans-serif" font-size="9" fill="#888">Resumen generado · Análisis Matemático II · Cap. 4-6</text>
  <text x="506" y="308" font-family="'Rethink Sans',sans-serif" font-size="9" fill="#555" text-anchor="end">hace 2h</text>

  <rect x="176" y="326" width="360" height="32" rx="6" fill="#252525"/>
  <circle cx="198" cy="342" r="8" fill="#C5A24A" opacity="0.3"/>
  <text x="218" y="346" font-family="'Rethink Sans',sans-serif" font-size="9" fill="#888">20 flashcards creadas · Derecho Constitucional · Bloque 2</text>
  <text x="506" y="346" font-family="'Rethink Sans',sans-serif" font-size="9" fill="#555" text-anchor="end">ayer</text>
</svg>
